HIERARCHY
ROOT HipCenter
{
    OFFSET 0.0 0.0 -0.0
    CHANNELS 6 Xposition Yposition Zposition Zrotation Xrotation Yrotation
    JOINT Spine
    {
        OFFSET 0.0 0.10257791727781296 0.0
        CHANNELS 3 Zrotation Xrotation Yrotation
        JOINT ShoulderCenter
        {
            OFFSET 0.0 0.2983526289463043 0.0
            CHANNELS 3 Zrotation Xrotation Yrotation
            JOINT LeftShoulder
            {
                OFFSET 0.19006788730621338 0.0 0.0
                CHANNELS 3 Zrotation Xrotation Yrotation
                JOINT LeftElbow
                {
                    OFFSET 0.2199472039937973 0.0 0.0
                    CHANNELS 3 Zrotation Xrotation Yrotation
                    JOINT LeftWrist
                    {
                        OFFSET 0.26981714367866516 0.0 0.0
                        CHANNELS 3 Zrotation Xrotation Yrotation
                        JOINT LeftHand
                        {
                            OFFSET 0.040231794118881226 0.0 0.0
                            CHANNELS 3 Zrotation Xrotation Yrotation
                            End Site
                            {
                                OFFSET 0.01609271764755249 0.0 0.0
                            }
                        }
                    }
                }
            }
            JOINT RightShoulder
            {
                OFFSET -0.19006788730621338 0.0 0.0
                CHANNELS 3 Zrotation Xrotation Yrotation
                JOINT RightElbow
                {
                    OFFSET -0.2199472039937973 0.0 0.0
                    CHANNELS 3 Zrotation Xrotation Yrotation
                    JOINT RightWrist
                    {
                        OFFSET -0.26981714367866516 0.0 0.0
                        CHANNELS 3 Zrotation Xrotation Yrotation
                        JOINT RightHand
                        {
                            OFFSET -0.040231794118881226 0.0 0.0
                            CHANNELS 3 Zrotation Xrotation Yrotation
                            End Site
                            {
                                OFFSET -0.01609271764755249 0.0 0.0
                            }
                        }
                    }
                }
            }
            End Site
            {
                OFFSET 0.0 0.11934105306863785 0.0
            }
        }
    }
    JOINT LeftHip
    {
        OFFSET 0.12685683369636536 0.0 0.0
        CHANNELS 3 Zrotation Xrotation Yrotation
        JOINT LeftKnee
        {
            OFFSET 0.0 -0.3799298405647278 0.0
            CHANNELS 3 Zrotation Xrotation Yrotation
            JOINT LeftAnkle
            {
                OFFSET 0.0 -0.3775678873062134 0.0
                CHANNELS 3 Zrotation Xrotation Yrotation
                JOINT LeftFoot
                {
                    OFFSET 0.0 -0.09019118547439575 0.0
                    CHANNELS 3 Zrotation Xrotation Yrotation
                    End Site
                    {
                        OFFSET 0.0 0.0 0.03607647120952606
                    }
                }
            }
        }
    }
    JOINT RightHip
    {
        OFFSET -0.12685683369636536 0.0 0.0
        CHANNELS 3 Zrotation Xrotation Yrotation
        JOINT RightKnee
        {
            OFFSET 0.0 -0.3799298405647278 0.0
            CHANNELS 3 Zrotation Xrotation Yrotation
            JOINT RightAnkle
            {
                OFFSET 0.0 -0.3775678873062134 0.0
                CHANNELS 3 Zrotation Xrotation Yrotation
                JOINT RightFoot
                {
                    OFFSET 0.0 -0.09019118547439575 0.0
                    CHANNELS 3 Zrotation Xrotation Yrotation
                    End Site
                    {
                        OFFSET 0.0 0.0 0.03607647120952606
                    }
                }
            }
        }
    }
}
MOTION
Frames: 7
Frame Time: 0.03333333333333333
1.2369999885559082 -0.30300000309944153 0.05700000002980232 -25.5599770239827 -1.1235181802325689 94.97266330338901 2.098879479182743 4.517600392755431 -0.17090399713977347 4.235733027841915e-07 4.094330731278082e-08 -1.0698339482370338 -35.23875889721869 45.299344566536114 -60.33401437349103 -1.5174809540364473e-07 -3.363915125513636e-06 8.379079182195762 -0.00034927249787718205 89.1700610910623 51.92347671391549 -3.1805546814635168e-15 6.3611093629270335e-15 -3.1805546814635168e-15 -79.558481984678 14.933577727149018 157.48935391099948 -3.321472063593886e-06 -7.984392369057599e-07 -23.617710806161284 6.126850629522862e-06 53.04220406625217 -67.48303847968145 6.361109362927032e-15 8.827812596100317e-32 1.590277340731758e-15 -55.425647708241684 -85.82356570947873 -12.607506420187228 84.77295224190941 48.01130062452196 -120.08242604714441 88.51627679190675 -44.91567273865428 136.26785291220259 -3.1805546814635168e-15 -3.1805546814635168e-15 -8.827812596100317e-32 7.353779789771491 -86.19360442848536 -33.18347896984993 -86.35894943920731 51.89483098867164 122.56260510300181 -78.79828155584026 -70.99553054686622 -113.40999925274829 6.3611093629270335e-15 -3.1805546814635168e-15 3.1805546814635168e-15
1.1970000267028809 -0.32600000500679016 0.05400000140070915 -10.653865247816956 -2.2288994180401227 94.89973878204776 1.4602339229743901 -2.3319513992209537 0.07990974209524249 7.500319287912409e-07 4.973647575859498e-07 1.0857795938456742 106.94100711213675 -11.50661711734887 -97.70199354858842 -8.111221687755598e-07 -5.899301006808088e-06 45.35994479453609 -179.9999987476392 -47.851194842560574 -128.40602964152856 -7.951386703658791e-16 -3.310429723537619e-32 4.770832022195274e-15 -93.39527680685921 -6.331953903539871 100.3348398006304 7.472211592483728e-07 9.175310527262574e-06 -40.78458885929912 2.576214323535887e-06 -44.395875620034396 -26.480050307949828 -1.5902773407317584e-15 -2.2069531490250793e-32 1.5902773407317584e-15 -6.775877698279092 -76.51650224883721 31.938678095877126 90.24087872165802 52.23549512522103 -132.27855784994784 89.37228191388901 -40.01566688691002 130.98804686109136 3.1805546814635168e-15 -3.1805546814635168e-15 8.827812596100317e-32 -0.3131190633062 -73.75421695796577 -34.93399914147604 -88.36419452771084 61.27379547582866 129.07522567472088 -76.88063074464063 -62.314333093070715 -101.18285307853081 -2.648343778830095e-31 -6.3611093629270335e-15 -4.770832022195275e-15
1.2000000476837158 -0.2240000069141388 0.04500000178813934 6.155188886080587 1.6655141568604484e-08 92.551380651905 -2.4846694548095862 -3.9539473658421875 -0.14104338275700318 -1.7066101691027486e-07 -4.048327495053195e-07 3.9371958037134602 130.10025815098916 32.214817718591775 -71.12938170315101 -4.486086581600259e-06 1.3769192807890446e-06 49.944194676011456 -179.9999914625847 -72.49810630643088 -85.41441722775811 6.361109362927032e-15 6.361109362927032e-15 6.361109362927032e-15 -116.87755687844563 32.32394676997946 66.26849019838836 3.1788628140736857e-06 -4.250953145166239e-06 -41.66306123724723 -179.9999690522909 -84.73652425053493 127.46409860607386 -8.547740706433202e-15 -3.9756933518293925e-16 -4.770832022195275e-15 5.38986881544651 -44.34943369451403 15.123115732032355 16.86029905620659 72.00206586318602 -71.1929207577502 81.39733232791856 -37.87718861162377 103.66780882098033 3.1805546814635168e-15 1.7655625192200634e-31 6.3611093629270335e-15 -6.1045654177514175 -41.056413801654465 -9.702923786218646 9.414737141928107 69.20777162784645 42.046799384316415 -93.95680231564937 -40.354754842326756 -116.9535753245575 -6.361109362927033e-15 3.1805546814635164e-15 1.7655625192200634e-31
1.2100000381469727 -0.01899999938905239 0.03700000047683716 37.09284993928666 6.518315052639839e-07 89.22252158999966 -3.212085801518105 -3.070134153204874 -0.1644523729337612 4.25569363452729e-07 2.474304726697901e-07 2.6501633109175944 163.86184306745196 59.93675275241029 -121.84261949898267 2.206462206821975e-06 -1.5159664048695599e-06 54.16390009330904 179.9999987422555 -4.983074701839611 -106.1356906391188 6.361109362927035e-15 3.1805546814635183e-15 6.361109362927035e-15 -140.38590462662714 60.73642523516974 102.4770148752232 -2.9393703990607194e-07 -1.1529661806994368e-06 -49.795729854957045 -179.9999862419531 -76.65189725649059 129.65375092637643 -2.584200678689108e-15 9.939233379573492e-17 -1.9878466759146985e-16 8.607407530625812 6.939551786203851 -42.421059164236446 -35.84791536520517 23.836481853679455 -4.121905390889945 55.73141277293494 -31.193303529812965 47.965760142783864 -4.4139062980501586e-32 3.1805546814635168e-15 1.5902773407317584e-15 -9.288975945887897 8.213903229508269 41.09758484839209 34.08439289638912 21.743483624720906 3.7807781451851197 -110.19665918837386 6.7429923660696565 168.3149008248475 -8.827812596100317e-32 -3.1805546814635176e-15 -3.1805546814635176e-15
1.11899995803833 0.09200000017881393 0.02199999988079071 47.3532934846692 0.5545060457494849 85.43491989726864 -3.242964852688426 -0.07643369822801105 -0.004016792126568139 2.063882806952821e-06 2.239562746744174e-06 4.725396228334116 -165.43642917204562 65.02269303537962 159.09170174968673 -2.3823111454132637e-06 -1.9679495530329008e-06 59.3948153699836 -179.99999580599956 -57.688204558993306 -151.30133090570314 -3.1805546814635168e-15 -6.3611093629270335e-15 -1.5902773407317584e-15 -165.50396521982125 79.25400269849234 169.8191837977552 3.569901147752e-06 4.056820124249602e-06 -60.10328998146576 -179.9999821609336 -65.01859739020861 131.11978837267057 -4.4139062980501586e-32 7.951386703658791e-16 6.361109362927033e-15 10.254019586069225 -14.636530545724 -22.309167302706737 -78.04591377158016 56.34856712296519 16.431795197243034 63.302977640950964 -59.43236848721106 48.43605620648041 -3.1805546814635164e-15 4.4139062980501586e-32 -1.5902773407317582e-15 -16.924362205723952 -14.61302882240226 22.1101897544718 64.56131029329201 52.096173030732444 -1.9695473917194612 -85.41675368667502 10.535707193136773 59.62892866012765 -3.975693351829396e-15 -6.3611093629270335e-15 -2.2069531490250793e-31
1.0099999904632568 0.10000000149011612 0.009999999776482582 54.13715518943526 2.236638121523731 85.68718490768681 -3.9832414494769006 5.198828903543513 0.2816694616926583 -1.8874225880359889e-06 -7.29923737835541e-07 4.2992088568744435 138.70738394761733 36.0559387597207 -179.1913289597032 -1.5105270522936124e-06 -9.010694642877285e-07 42.796218556595626 -179.99999801389282 -62.83848350352635 -148.84669981789767 -1.5448672043175555e-31 -3.1805546814635168e-15 -5.565970692561154e-15 -119.69851293889552 64.57162970829198 157.05983503307274 1.8318637781700623e-06 -2.0937473573387215e-07 -56.35758904642272 179.99999366018145 -77.26922812600283 142.27783918342874 3.089734408635111e-31 -3.180554681463516e-15 1.1131941385122306e-14 20.014043559982632 -58.27764696446796 45.84481913045215 76.24350488128562 60.043452151582976 -138.15523061524908 -162.02052175207604 20.040578784398612 164.4850816015177 7.951386703658793e-15 4.413906298050159e-31 6.361109362927035e-15 -32.56213717459576 -57.46253939886608 -59.308889622517825 -87.52702100129775 56.327892144291596 152.42321042970872 7.571614298040348 2.9678293372893347 0.5000737951107989 -1.5902773407317584e-15 8.276074308844047e-33 -5.963540027744094e-16
0.9959999918937683 0.06199999898672104 0.004999999888241291 69.44396072250844 2.2341909133633857 86.45085396577215 -4.978103094858971 9.417887968359775 1.2351185973472185 2.610787166114961e-06 5.438200141325449e-07 3.7741686264330885 110.18681560685305 19.095690653020263 -146.09279248463713 -7.525139002923486e-07 -5.750715060851127e-07 33.29832275515058 179.99997108092083 -88.83923367494953 -154.01850409531585 -1.7655625192200634e-31 -3.1805546814635164e-15 -6.361109362927033e-15 -101.15728587463401 37.285173443748114 140.36444034992158 -2.195298483676124e-06 -2.7278679872092567e-06 -43.23187223808172 5.650131601909785e-06 -74.94699253388964 -23.510998688803035 -4.965644585306429e-32 -7.951386703658792e-16 -7.156248033292914e-15 138.34057601708332 -75.05927211364484 -175.80262180707305 70.79154886221988 41.81330232213087 -120.22316850230321 -95.44715838675825 29.68406454609705 31.849266766549036 7.951386703658794e-16 -1.9878466759146985e-16 2.981770013872048e-16 -142.39233936769273 -71.4604799611639 166.823273129589 -71.60004267951368 34.76550465034275 120.00763315949219 73.70942402377385 61.263657429490465 -19.89203526235113 0.0 0.0 -1.7890620083232284e-15
